<svg width="128" height="33" viewBox="0 0 128 33" fill="none" xmlns="http://www.w3.org/2000/svg">
<path d="M15.128 32.546C13.14 32.546 11.271 32.154 9.521 31.37C7.771 30.572 6.231 29.48 4.901 28.094C3.585 26.694 2.549 25.07 1.793 23.222C1.051 21.374 0.68 19.4 0.68 17.3C0.68 15.2 1.051 13.226 1.793 11.378C2.549 9.53 3.585 7.913 4.901 6.527C6.231 5.127 7.771 4.035 9.521 3.251C11.271 2.453 13.14 2.054 15.128 2.054C17.508 2.054 19.699 2.607 21.701 3.713C23.703 4.819 25.362 6.289 26.678 8.123L24.074 9.53C23.038 8.144 21.722 7.045 20.126 6.233C18.544 5.407 16.878 4.994 15.128 4.994C13.518 4.994 12.013 5.323 10.613 5.981C9.227 6.625 8.009 7.514 6.959 8.648C5.909 9.782 5.09 11.091 4.502 12.575C3.914 14.059 3.62 15.634 3.62 17.3C3.62 18.994 3.914 20.583 4.502 22.067C5.104 23.551 5.93 24.86 6.98 25.994C8.044 27.128 9.269 28.017 10.655 28.661C12.055 29.291 13.546 29.606 15.128 29.606C16.948 29.606 18.635 29.193 20.189 28.367C21.757 27.527 23.052 26.435 24.074 25.091L26.678 26.498C25.362 28.332 23.703 29.802 21.701 30.908C19.699 32 17.508 32.546 15.128 32.546ZM49.3222 19.001V32H46.3822V19.589C46.3822 18.441 46.1022 17.398 45.5422 16.46C44.9822 15.522 44.2332 14.773 43.2952 14.213C42.3572 13.653 41.3142 13.373 40.1662 13.373C39.0322 13.373 37.9892 13.653 37.0372 14.213C36.0992 14.773 35.3502 15.522 34.7902 16.46C34.2302 17.398 33.9502 18.441 33.9502 19.589V32H31.0102V0.499997H33.9502V13.898C34.6922 12.834 35.6582 11.987 36.8482 11.357C38.0382 10.727 39.3332 10.412 40.7332 10.412C42.3152 10.412 43.7572 10.797 45.0592 11.567C46.3612 12.337 47.3972 13.373 48.1672 14.675C48.9372 15.977 49.3222 17.419 49.3222 19.001ZM70.3797 11H73.3197V32H70.3797L70.2747 28.094C69.5887 29.424 68.6297 30.502 67.3977 31.328C66.1657 32.14 64.6957 32.546 62.9877 32.546C61.4477 32.546 60.0057 32.259 58.6617 31.685C57.3177 31.097 56.1347 30.292 55.1127 29.27C54.0907 28.248 53.2927 27.065 52.7187 25.721C52.1447 24.377 51.8577 22.935 51.8577 21.395C51.8577 19.883 52.1377 18.462 52.6977 17.132C53.2717 15.802 54.0557 14.633 55.0497 13.625C56.0577 12.617 57.2197 11.833 58.5357 11.273C59.8657 10.699 61.2867 10.412 62.7987 10.412C64.5487 10.412 66.0747 10.832 67.3767 11.672C68.6787 12.498 69.7147 13.583 70.4847 14.927L70.3797 11ZM62.9247 29.69C64.4227 29.69 65.7107 29.326 66.7887 28.598C67.8667 27.856 68.6927 26.862 69.2667 25.616C69.8547 24.37 70.1487 22.998 70.1487 21.5C70.1487 19.96 69.8547 18.574 69.2667 17.342C68.6787 16.096 67.8457 15.109 66.7677 14.381C65.6897 13.653 64.4087 13.289 62.9247 13.289C61.4407 13.289 60.0827 13.66 58.8507 14.402C57.6327 15.13 56.6597 16.117 55.9317 17.363C55.2177 18.609 54.8607 19.988 54.8607 21.5C54.8607 23.026 55.2317 24.412 55.9737 25.658C56.7157 26.89 57.6957 27.87 58.9137 28.598C60.1457 29.326 61.4827 29.69 62.9247 29.69ZM88.253 13.94H83.234L83.213 32H80.273L80.294 13.94H76.493V11H80.294L80.273 4.406H83.213L83.234 11H88.253V13.94Z" fill="#536CDD"/>
<path d="M92.8195 32.546C92.3575 32.546 91.9655 32.378 91.6435 32.042C91.3215 31.72 91.1605 31.321 91.1605 30.845C91.1605 30.397 91.3215 30.012 91.6435 29.69C91.9655 29.354 92.3575 29.186 92.8195 29.186C93.2955 29.186 93.6945 29.354 94.0165 29.69C94.3525 30.012 94.5205 30.397 94.5205 30.845C94.5205 31.321 94.3525 31.72 94.0165 32.042C93.6945 32.378 93.2955 32.546 92.8195 32.546ZM99.5473 11H102.487V32H99.5473V11ZM101.038 7.325C100.562 7.325 100.156 7.171 99.8203 6.863C99.4983 6.541 99.3373 6.142 99.3373 5.666C99.3373 5.19 99.4983 4.798 99.8203 4.49C100.156 4.168 100.562 4.007 101.038 4.007C101.5 4.007 101.892 4.168 102.214 4.49C102.55 4.798 102.718 5.19 102.718 5.666C102.718 6.142 102.557 6.541 102.235 6.863C101.913 7.171 101.514 7.325 101.038 7.325ZM116.58 32.546C114.648 32.546 112.884 32.049 111.288 31.055C109.706 30.061 108.439 28.731 107.487 27.065C106.549 25.385 106.08 23.53 106.08 21.5C106.08 19.96 106.353 18.525 106.899 17.195C107.445 15.851 108.194 14.675 109.146 13.667C110.112 12.645 111.232 11.847 112.506 11.273C113.78 10.699 115.138 10.412 116.58 10.412C118.512 10.412 120.269 10.909 121.851 11.903C123.447 12.897 124.714 14.234 125.652 15.914C126.604 17.594 127.08 19.456 127.08 21.5C127.08 23.026 126.807 24.454 126.261 25.784C125.715 27.114 124.959 28.29 123.993 29.312C123.041 30.32 121.928 31.111 120.654 31.685C119.394 32.259 118.036 32.546 116.58 32.546ZM116.58 29.606C118.008 29.606 119.289 29.235 120.423 28.493C121.571 27.737 122.474 26.743 123.132 25.511C123.804 24.279 124.14 22.942 124.14 21.5C124.14 20.03 123.804 18.679 123.132 17.447C122.46 16.201 121.55 15.207 120.402 14.465C119.268 13.723 117.994 13.352 116.58 13.352C115.152 13.352 113.864 13.73 112.716 14.486C111.582 15.228 110.679 16.215 110.007 17.447C109.349 18.679 109.02 20.03 109.02 21.5C109.02 23.012 109.363 24.384 110.049 25.616C110.735 26.834 111.652 27.807 112.8 28.535C113.948 29.249 115.208 29.606 116.58 29.606Z" fill="#7C92F5"/>
</svg>
